<svg id="Layer_1" enable-background="new 0 0 512 512" height="512" viewBox="0 0 512 512" width="512" xmlns="http://www.w3.org/2000/svg"><g><g><path d="m210.09 248.5c-15.164 0-27.5 12.336-27.5 27.5v41c0 15.164 12.336 27.5 27.5 27.5s27.5-12.336 27.5-27.5v-41c0-15.164-12.337-27.5-27.5-27.5zm12.5 68.5c0 6.893-5.607 12.5-12.5 12.5s-12.5-5.607-12.5-12.5v-41c0-6.893 5.607-12.5 12.5-12.5s12.5 5.607 12.5 12.5z"/><path d="m420.153 97.347c-5.383-5.383-12.54-8.347-20.153-8.347h-4.433c-3.465-19.621-20.317-34.622-40.402-35.608-4.327-18.307-20.895-31.671-40.045-31.671-10.535 0-20.519 3.991-28.103 11.1-6.925-7.028-16.473-11.1-26.457-11.1-6.647 0-13.122 1.78-18.776 5.097-6.171-16.577-22.667-27.75-40.86-26.755-19.746 1.072-35.937 16.076-38.5 35.674-.159 1.216-.265 2.436-.316 3.656-3.63-.677-7.346-.857-11.106-.535-4.127.354-7.187 3.985-6.833 8.112s3.98 7.183 8.112 6.833c3.792-.326 7.504.146 11.03 1.402 3.463 1.232 7.242.605 10.11-1.681 2.821-2.25 4.253-5.729 3.831-9.309-.255-2.154-.24-4.352.046-6.534 1.601-12.239 12.107-21.973 24.438-22.643 13.072-.709 24.741 8.415 27.16 21.214.692 3.666 3.309 6.7 6.831 7.919 3.531 1.224 7.48.454 10.304-2.01 4.02-3.51 9.18-5.443 14.53-5.443 7.059 0 13.752 3.419 17.904 9.146 1.886 2.6 4.811 4.147 8.027 4.245 3.293.098 6.34-1.297 8.426-3.832 4.998-6.076 12.362-9.56 20.203-9.56 13.012 0 24.147 9.703 25.902 22.57.74 5.419 5.438 9.325 10.889 9.076.381-.017.764-.026 1.148-.026 14.626 0 26.958 11.406 28.077 25.966.417 5.436 4.991 9.694 10.415 9.694h8.448c3.606 0 6.997 1.404 9.547 3.954 2.604 2.604 4.007 6.068 3.952 9.756-.11 7.328-6.378 13.29-13.972 13.29h-57.81c-8.547 0-15.5 6.953-15.5 15.5v89.503c0 6.893-5.607 12.5-12.5 12.5s-12.5-5.607-12.5-12.5v-49.531c0-.013.002-.026.002-.039s-.002-.026-.002-.039v-39.891c0-8.547-6.953-15.5-15.5-15.5h-47.49c-8.547 0-15.5 6.953-15.5 15.5v51.422c0 6.893-5.607 12.5-12.5 12.5s-12.5-5.607-12.5-12.5v-11.454c0-.013.002-.026.002-.039s-.002-.026-.002-.039v-39.89c0-8.547-6.953-15.5-15.5-15.5h-70.227c-3.607 0-6.997-1.404-9.547-3.954-2.604-2.604-4.007-6.068-3.952-9.756.11-7.328 6.378-13.29 13.972-13.29h8.173c3.486 0 6.729-1.728 8.676-4.621 1.937-2.879 2.314-6.514 1.009-9.722-1.54-3.786-2.153-7.812-1.826-11.959.277-3.468 1.243-6.799 2.871-9.9 1.925-3.668.512-8.201-3.156-10.126-3.668-1.926-8.202-.512-10.126 3.156-2.573 4.904-4.101 10.177-4.541 15.681-.336 4.257-.038 8.437.89 12.491h-1.971c-15.742 0-28.738 12.59-28.97 28.065-.117 7.779 2.846 15.091 8.343 20.588 5.384 5.383 12.542 8.347 20.155 8.347h1.042l24.308 320.783v33.717c0 6.341 5.159 11.5 11.5 11.5h43.124c4.142 0 7.5-3.358 7.5-7.5s-3.358-7.5-7.5-7.5h-39.624v-23h138.073c4.955 7.263 13.295 12.041 22.731 12.041s17.775-4.778 22.73-12.041h23.766v23h-135.676c-4.142 0-7.5 3.358-7.5 7.5s3.358 7.5 7.5 7.5h139.176c6.341 0 11.5-5.159 11.5-11.5v-33.717l14.162-186.919c.313-4.13-2.781-7.732-6.912-8.045-4.116-.316-7.732 2.782-8.045 6.912l-13.658 180.269h-19.555c.003-.153.012-.305.012-.459v-112.077c0-15.164-12.337-27.5-27.501-27.5-15.163 0-27.5 12.336-27.5 27.5v112.077c0 .154.009.306.012.459h-133.862l-20.086-265.07h51.011v3.993c0 15.164 12.336 27.5 27.5 27.5s27.5-12.336 27.5-27.5v-3.993h48.49v42.07c0 15.164 12.337 27.5 27.5 27.5 15.164 0 27.5-12.336 27.5-27.5v-42.07h39.063l-3.959 52.257c-.313 4.13 2.781 7.732 6.912 8.045.192.015.384.022.574.022 3.885 0 7.173-2.997 7.471-6.934l7.675-101.32h.573c15.741 0 28.737-12.59 28.97-28.065.117-7.78-2.847-15.092-8.344-20.588zm-119.5 249.117c0-6.893 5.607-12.5 12.501-12.5 6.893 0 12.5 5.607 12.5 12.5v112.077c0 6.893-5.607 12.5-12.5 12.5h-.001c-6.893 0-12.5-5.607-12.5-12.5zm-170.073-167.534-2.495-32.93h54.143c.276 0 .5.224.5.5v32.43zm107.148 0v-32.43c0-.276.224-.5.5-.5h47.49c.275 0 .5.224.5.5v32.43zm143.689 0h-40.199v-32.43c0-.276.225-.5.5-.5h42.194z"/></g></g></svg>