<svg id="Layer_1" enable-background="new 0 0 512 512" height="512" viewBox="0 0 512 512" width="512" xmlns="http://www.w3.org/2000/svg"><g><path d="m330.608 226.274c-11.32-6.434-18.515-18.037-19.244-31.038l-8.522-151.849c3.38-2.005 5.658-5.681 5.658-9.888v-12c0-11.854-9.645-21.499-21.5-21.499h-62c-11.855 0-21.5 9.645-21.5 21.5v12c0 4.207 2.278 7.883 5.658 9.888l-5.446 97.036c-.232 4.136 2.933 7.677 7.068 7.909 4.123.229 7.676-2.933 7.908-7.068l1.189-21.182h72.246l4.265 75.995c1.017 18.111 11.038 34.274 26.809 43.238 11.907 6.768 19.304 19.48 19.304 33.176v48.959h-16.941c-1.841-7.765-4.969-15.192-9.318-21.979-2.234-3.487-6.874-4.504-10.36-2.269-3.488 2.235-4.504 6.874-2.269 10.361 5.814 9.076 8.889 19.6 8.889 30.437v60c0 31.154-25.346 56.5-56.5 56.5s-56.5-25.346-56.5-56.5v-60c0-31.154 25.346-56.5 56.5-56.5 9.589 0 19.058 2.443 27.382 7.065 3.623 2.011 8.188.706 10.197-2.917 2.011-3.621.705-8.187-2.916-10.198-10.546-5.856-22.532-8.951-34.663-8.951-33.727 0-62.056 23.482-69.545 54.95h-16.957v-48.959c0-13.696 7.396-26.408 19.304-33.176 15.771-8.963 25.792-25.127 26.809-43.238l1.278-22.772c.232-4.136-2.933-7.676-7.068-7.909-4.116-.218-7.676 2.932-7.908 7.068l-1.278 22.772c-.729 13.001-7.924 24.604-19.244 31.038-16.587 9.428-26.892 27.138-26.892 46.217v222.009c0 9.649 7.851 17.5 17.5 17.5h20c4.143 0 7.5-3.358 7.5-7.5s-3.357-7.5-7.5-7.5h-20c-1.379 0-2.5-1.122-2.5-2.5v-78.05h17.426c8.158 30.51 36.028 53.05 69.074 53.05s60.916-22.54 69.074-53.05h17.425v78.05c0 1.378-1.121 2.5-2.5 2.5h-115.308c-4.143 0-7.5 3.358-7.5 7.5s3.357 7.5 7.5 7.5h115.308c9.649 0 17.5-7.851 17.5-17.5v-222.009c0-19.079-10.305-36.788-26.892-46.217zm-112.108-204.774c0-3.584 2.916-6.5 6.5-6.5h62c3.584 0 6.5 2.916 6.5 6.5v8.5h-75zm2.219 83.583 3.372-60.083h63.818l3.372 60.083zm-51.219 296.367v-65h15.039c-.011.517-.039 1.03-.039 1.55v60c0 1.157.033 2.306.088 3.45zm157.912 0c.055-1.144.088-2.293.088-3.45v-60c0-.518-.016-1.033-.028-1.55h15.028v65z"/></g></svg>