<svg id="Layer_1" enable-background="new 0 0 512 512" height="512" viewBox="0 0 512 512" width="512" xmlns="http://www.w3.org/2000/svg"><g><g><path d="m504.5 266.5h-37.346c-.829-7.306-3.159-14.383-6.867-20.734-4.703-8.107-11.509-14.849-19.682-19.497-11.323-6.435-18.515-18.033-19.237-31.03l-8.526-151.852c3.38-2.005 5.657-5.681 5.657-9.888v-12c.001-11.854-9.644-21.499-21.499-21.499h-44c-11.855 0-21.5 9.645-21.5 21.5v12c0 4.207 2.278 7.883 5.657 9.888l-8.526 151.857c-.353 6.338-2.312 12.55-5.667 17.965-3.348 5.401-8.04 9.917-13.572 13.061-14.836 8.436-24.639 23.495-26.545 40.229h-53.693c-.829-7.306-3.159-14.383-6.867-20.734-4.703-8.107-11.509-14.849-19.682-19.497-11.323-6.435-18.515-18.033-19.237-31.03l-8.526-151.852c3.38-2.005 5.657-5.681 5.657-9.888v-12c.001-11.854-9.644-21.499-21.499-21.499h-44c-11.855 0-21.5 9.645-21.5 21.5v12c0 4.207 2.278 7.883 5.657 9.888l-4.764 84.852c-.232 4.136 2.933 7.676 7.067 7.909 4.142.225 7.676-2.933 7.909-7.068l.505-8.998h54.25l4.267 75.994c1.006 18.107 11.026 34.27 26.802 43.233 5.864 3.335 10.747 8.17 14.13 14.002 2.375 4.068 3.946 8.549 4.684 13.188h-154.012c1.811-11.33 8.664-21.419 18.81-27.189 7.706-4.379 14.245-10.672 18.91-18.2 4.674-7.542 7.403-16.198 7.894-25.03l1.965-35c.232-4.136-2.933-7.676-7.068-7.909-4.128-.224-7.676 2.932-7.908 7.068l-1.965 35.005c-.353 6.338-2.312 12.55-5.667 17.965-3.348 5.401-8.04 9.917-13.572 13.061-14.836 8.436-24.639 23.495-26.545 40.229h-37.349c-4.143 0-7.5 3.358-7.5 7.5v230.5c0 4.142 3.357 7.5 7.5 7.5h88.27c4.143 0 7.5-3.358 7.5-7.5s-3.357-7.5-7.5-7.5h-80.77v-215.5h482v38.269c0 4.142 3.357 7.5 7.5 7.5s7.5-3.358 7.5-7.5v-45.769c0-4.142-3.357-7.5-7.5-7.5zm-396-245c0-3.584 2.916-6.5 6.5-6.5h44c3.584 0 6.5 2.916 6.5 6.5v8.5h-57zm2.218 83.583 3.373-60.083h45.818l3.374 60.083zm290.565 0h-52.565l3.373-60.083h45.818zm-54.783-83.583c0-3.584 2.916-6.5 6.5-6.5h44c3.584 0 6.5 2.916 6.5 6.5v8.5h-57zm-29.695 217.811c7.706-4.379 14.245-10.672 18.91-18.2 4.674-7.542 7.403-16.199 7.894-25.03l4.267-75.998h54.25l4.267 75.994c1.006 18.107 11.026 34.27 26.802 43.233 5.864 3.335 10.747 8.17 14.13 14.002 2.375 4.068 3.946 8.549 4.684 13.188h-154.014c1.811-11.33 8.664-21.419 18.81-27.189z"/><path d="m504.5 343.961c-4.143 0-7.5 3.358-7.5 7.5v145.539h-368.41c-4.143 0-7.5 3.358-7.5 7.5s3.357 7.5 7.5 7.5h375.91c4.143 0 7.5-3.358 7.5-7.5v-153.039c0-4.142-3.357-7.5-7.5-7.5z"/><path d="m316 380.5c8.4 0 16.309-3.275 22.268-9.221l.011-.011c5.946-5.958 9.222-13.867 9.222-22.268 0-17.369-14.131-31.5-31.5-31.5h-120.001c-8.399 0-16.308 3.274-22.278 9.232-5.948 5.959-9.222 13.868-9.222 22.268 0 17.369 14.131 31.5 31.5 31.5zm-136.5-31.5c0-4.4 1.719-8.545 4.827-11.661 3.128-3.12 7.273-4.839 11.673-4.839h120c9.098 0 16.5 7.402 16.5 16.5 0 4.395-1.715 8.535-4.828 11.661-3.127 3.121-7.272 4.839-11.672 4.839h-120c-9.098 0-16.5-7.402-16.5-16.5z"/></g></g></svg>