<svg id="Layer_1" enable-background="new 0 0 512 512" height="512" viewBox="0 0 512 512" width="512" xmlns="http://www.w3.org/2000/svg"><g><path d="m510.142 107.17c-1.822-3.111-4.748-5.327-8.237-6.238l-27.091-7.075 15.919-60.959c1.046-4.008-1.354-8.105-5.362-9.152-4.013-1.044-8.105 1.354-9.152 5.362l-16.151 61.846c-11.412-.884-22.809 1.702-32.896 7.611-.667.391-1.318.802-1.965 1.216l21.671-82.988c1.046-4.008-1.354-8.105-5.362-9.152-4.012-1.047-8.105 1.354-9.152 5.362l-21.68 83.021c-5.67-10.653-14.703-19.475-26.088-24.77l16.153-61.857c1.046-4.008-1.354-8.105-5.362-9.152-4.012-1.048-8.105 1.354-9.152 5.362l-15.915 60.958-27.09-7.075c-3.489-.913-7.125-.41-10.236 1.414-3.112 1.823-5.327 4.748-6.237 8.237l-1.984 7.594c-7.893 30.225 10.276 61.237 40.501 69.131l30.329 7.921-4.877 18.677c-7.183-13.496-19.753-24.075-35.676-28.234l-31.781-8.301c-7.204-1.882-14.591 2.449-16.473 9.651l-1.983 7.594c-7.893 30.225 10.275 61.237 40.501 69.131l30.329 7.921-4.877 18.677c-7.183-13.496-19.753-24.076-35.677-28.234l-31.78-8.299c-3.489-.912-7.124-.41-10.236 1.414-3.111 1.823-5.326 4.748-6.237 8.237l-1.984 7.594c-7.893 30.225 10.276 61.237 40.501 69.131l30.329 7.921-4.877 18.677c-7.183-13.496-19.753-24.076-35.677-28.234l-31.78-8.3c-3.489-.913-7.123-.41-10.236 1.414-3.111 1.823-5.327 4.748-6.238 8.238l-1.983 7.594c-7.893 30.225 10.275 61.237 40.501 69.13l30.329 7.921-4.853 18.583c-.366-.686-.737-1.37-1.132-2.045-7.65-13.059-19.927-22.357-34.572-26.181l-31.766-8.286c-2.61-.687-5.335-.553-7.82.304-2.286-.687-4.777-.791-7.252-.147l-31.788 8.259c-14.646 3.805-26.934 13.087-34.599 26.135-.392.667-.76 1.344-1.122 2.022l-4.847-18.647 30.335-7.882c14.646-3.805 26.934-13.087 34.599-26.135s9.789-28.3 5.982-42.946l-1.972-7.585c-1.873-7.203-9.253-11.541-16.46-9.669l-31.788 8.259c-14.646 3.805-26.934 13.087-34.599 26.135-.392.667-.759 1.343-1.122 2.021l-4.847-18.647 30.335-7.882c14.646-3.805 26.934-13.087 34.599-26.135s9.789-28.3 5.982-42.945l-1.971-7.585c-1.873-7.204-9.257-11.539-16.46-9.669l-31.789 8.259c-14.646 3.805-26.934 13.087-34.599 26.135-.392.667-.759 1.343-1.122 2.021l-4.847-18.647 30.334-7.881c14.646-3.805 26.934-13.087 34.599-26.135s9.79-28.301 5.983-42.946l-1.972-7.585c-1.872-7.204-9.253-11.541-16.46-9.669l-31.788 8.26c-14.646 3.805-26.934 13.087-34.599 26.135-.392.667-.759 1.343-1.122 2.021l-4.847-18.647 30.335-7.882c14.646-3.805 26.934-13.087 34.599-26.135s9.789-28.3 5.982-42.947l-1.972-7.584c-.907-3.49-3.119-6.417-6.227-8.244-3.109-1.827-6.742-2.333-10.232-1.426l-27.101 7.041-15.853-60.967c-1.042-4.009-5.14-6.415-9.145-5.372-4.009 1.042-6.414 5.137-5.372 9.145l16.078 61.852c-10.393 4.796-19.079 12.614-25 22.692-.392.667-.759 1.343-1.122 2.021l-21.576-83c-1.042-4.008-5.134-6.414-9.145-5.372-4.009 1.042-6.414 5.137-5.372 9.145l21.582 83.027c-10.147-6.531-22.337-9.823-34.857-8.889l-16.081-61.863c-1.041-4.009-5.137-6.415-9.145-5.372-4.009 1.042-6.414 5.137-5.372 9.145l15.847 60.964-27.099 7.041c-7.204 1.873-11.542 9.257-9.67 16.462l1.974 7.595c2.278 8.764 6.665 16.931 12.686 23.621 2.771 3.08 7.513 3.329 10.592.558s3.329-7.513.558-10.592c-4.483-4.981-7.618-10.822-9.318-17.361l-1.597-6.142 30.346-7.885c22.226-5.773 45.007 7.609 50.784 29.833l.742 2.855.854 3.287-30.346 7.885c-5.946 1.545-11.996 1.77-17.986.667-4.075-.749-7.984 1.945-8.733 6.019-.75 4.074 1.945 7.984 6.019 8.733 3.396.625 6.806.937 10.213.937 4.775 0 9.544-.614 14.261-1.839l30.347-7.885 4.854 18.674c-12.852-8.273-28.982-11.373-44.909-7.236l-31.798 8.262c-3.49.907-6.418 3.119-8.245 6.227-1.827 3.11-2.333 6.744-1.425 10.234l1.974 7.595c6.622 25.472 29.662 42.405 54.837 42.404 4.701 0 9.479-.591 14.236-1.827l30.347-7.885 4.854 18.675c-12.852-8.273-28.983-11.373-44.909-7.237l-31.798 8.262c-3.49.907-6.418 3.119-8.245 6.228s-2.333 6.744-1.426 10.234l1.974 7.594c6.622 25.473 29.662 42.406 54.838 42.405 4.701 0 9.479-.591 14.236-1.827l30.347-7.885 4.854 18.675c-12.853-8.273-28.983-11.373-44.909-7.236l-31.798 8.262c-3.49.907-6.418 3.119-8.245 6.228s-2.333 6.744-1.426 10.234l1.974 7.594c6.621 25.472 29.662 42.404 54.837 42.404 4.701 0 9.479-.591 14.236-1.827l30.348-7.885 4.854 18.674c-12.852-8.273-28.982-11.373-44.909-7.236l-31.798 8.262c-3.49.907-6.418 3.119-8.245 6.228-1.827 3.11-2.333 6.745-1.425 10.234l1.974 7.594c2.695 10.368 8.229 19.708 16.004 27.011 3.018 2.836 7.765 2.687 10.601-.332s2.687-7.765-.332-10.601c-5.709-5.363-9.774-12.228-11.756-19.852l-1.597-6.142 30.346-7.885c22.223-5.773 45.006 7.609 50.784 29.834l1.597 6.142-30.346 7.884c-4.831 1.255-9.774 1.637-14.683 1.138-4.118-.42-7.802 2.581-8.221 6.702s2.581 7.802 6.702 8.221c1.902.194 3.806.29 5.708.29 4.79 0 9.569-.613 14.267-1.833l30.347-7.885 11.194 43.063c.878 3.376 3.92 5.615 7.253 5.615.624 0 1.26-.079 1.892-.243 4.009-1.042 6.414-5.137 5.372-9.145l-11.193-43.061 30.335-7.882c11.849-3.078 22.152-9.744 29.715-19.086 7.528 9.206 17.835 15.906 29.536 18.963l30.353 7.921-11.265 43.136c-1.046 4.008 1.354 8.105 5.362 9.152.636.166 1.272.245 1.9.245 3.33 0 6.371-2.235 7.252-5.607l11.244-43.058 30.326 7.92c4.771 1.246 9.607 1.862 14.411 1.862 9.939 0 19.741-2.638 28.543-7.795 13.057-7.649 22.354-19.926 26.178-34.568l1.983-7.593c1.88-7.203-2.45-14.592-9.651-16.472l-31.778-8.3c-14.642-3.824-29.897-1.717-42.954 5.933-.667.391-1.318.802-1.965 1.216l4.868-18.643 30.326 7.92c4.771 1.246 9.607 1.862 14.411 1.862 9.939 0 19.741-2.638 28.543-7.795 13.058-7.65 22.355-19.927 26.178-34.569l1.982-7.592c1.881-7.202-2.448-14.592-9.65-16.473l-31.778-8.299c-14.643-3.824-29.898-1.717-42.954 5.933-.667.391-1.318.802-1.965 1.216l4.869-18.643 30.326 7.92c4.711 1.23 9.534 1.845 14.349 1.845 5.369 0 10.728-.764 15.912-2.289 3.974-1.169 6.247-5.338 5.079-9.312-1.169-3.973-5.336-6.247-9.312-5.079-7.219 2.124-14.909 2.235-22.238.321l-30.326-7.92 1.605-6.146c2.812-10.763 9.646-19.788 19.246-25.412s20.815-7.172 31.582-4.362l30.326 7.921-1.603 6.141c-1.332 5.097-3.564 9.816-6.637 14.026-2.441 3.346-1.708 8.038 1.638 10.479 3.345 2.441 8.038 1.708 10.479-1.638 4.185-5.735 7.224-12.154 9.033-19.077l1.982-7.592c.912-3.489.41-7.124-1.413-10.235s-4.748-5.327-8.237-6.238l-31.779-8.3c-14.644-3.824-29.897-1.717-42.954 5.933-.667.391-1.318.802-1.965 1.216l4.869-18.644 30.326 7.92c4.782 1.249 9.58 1.845 14.306 1.845 25.15 0 48.181-16.902 54.827-42.346l1.982-7.592c1.881-7.203-2.449-14.592-9.651-16.473l-31.778-8.3c-14.642-3.824-29.897-1.717-42.954 5.933-.667.391-1.318.802-1.965 1.217l4.868-18.643 30.326 7.92c4.771 1.247 9.608 1.863 14.412 1.863 9.939 0 19.74-2.638 28.543-7.795 13.057-7.65 22.354-19.927 26.178-34.569l1.982-7.592c.914-3.485.412-7.12-1.412-10.231zm-394.763-5.639c5.635-9.593 14.669-16.417 25.438-19.215l30.336-7.882 1.594 6.132c2.799 10.768 1.237 21.982-4.398 31.575s-14.669 16.417-25.438 19.215l-30.336 7.882-1.594-6.133c-2.799-10.767-1.237-21.98 4.398-31.574zm253.684 29.822c-22.222-5.804-35.58-28.605-29.778-50.828l1.604-6.143 30.329 7.921c22.223 5.804 35.581 28.605 29.777 50.828l-1.048 4.014-.556 2.129zm-49.738 25.612 1.604-6.143 30.329 7.921c22.22 5.803 35.578 28.601 29.778 50.822-.001.003-.002.005-.002.008l-1.603 6.14-30.328-7.921c-22.224-5.803-35.582-28.604-29.778-50.827zm9.815 127.267c-22.222-5.804-35.58-28.605-29.778-50.828l1.604-6.143 30.329 7.921c22.222 5.804 35.581 28.605 29.777 50.827l-1.489 5.702-.115.441zm-19.961 76.44c-22.223-5.804-35.581-28.605-29.777-50.828l1.604-6.143 30.329 7.921c22.222 5.803 35.58 28.604 29.777 50.827l-.063.242-1.541 5.9zm-134.183-29.795c5.635-9.593 14.669-16.417 25.438-19.215l30.336-7.882 1.594 6.133c2.799 10.768 1.237 21.982-4.398 31.575-5.636 9.593-14.67 16.417-25.438 19.215l-30.336 7.882-.985-3.789-.502-1.93-.107-.414c-2.8-10.768-1.238-21.982 4.398-31.575zm-19.872-76.448c5.636-9.594 14.67-16.418 25.438-19.216l30.337-7.882 1.594 6.133c2.799 10.768 1.237 21.982-4.398 31.575s-14.669 16.417-25.438 19.215l-30.336 7.882-.579-2.229-1.016-3.908c-2.799-10.767-1.237-21.979 4.398-31.57zm-19.872-76.449c5.635-9.593 14.669-16.417 25.438-19.215l30.336-7.882 1.594 6.133c2.799 10.768 1.237 21.982-4.399 31.575-5.635 9.594-14.67 16.418-25.438 19.216l-30.336 7.882-1.597-6.144c0-.001-.001-.002-.001-.004-2.794-10.765-1.23-21.972 4.403-31.561zm-47.669 49.364c-22.226 5.771-45.007-7.609-50.784-29.833l-1.597-6.142 30.346-7.885c22.222-5.773 45.005 7.608 50.784 29.832v.001c.001.004.002.008.003.012l1.594 6.131zm19.873 76.449c-22.225 5.772-45.007-7.609-50.784-29.834l-1.597-6.142 30.346-7.885c22.225-5.773 45.007 7.609 50.784 29.834l1.597 6.142zm19.872 76.448c-22.228 5.771-45.007-7.609-50.784-29.833l-1.597-6.142 30.346-7.885c22.227-5.771 45.006 7.607 50.784 29.831l.709 2.726.888 3.418zm95.072 56.91-30.336 7.882-1.595-6.137c-2.798-10.767-1.235-21.979 4.4-31.571 5.635-9.593 14.669-16.417 25.438-19.215l30.336-7.882 1.594 6.132c2.799 10.768 1.237 21.982-4.399 31.575-5.635 9.594-14.669 16.418-25.438 19.216zm41.862-18.63c4.725-11.338 5.636-23.841 2.493-35.935l-.288-1.108 24.906 6.497c10.766 2.811 19.793 9.647 25.417 19.249 5.624 9.6 7.173 20.815 4.361 31.578l-1.605 6.145-30.333-7.916c-10.431-2.724-19.351-9.394-24.951-18.51zm90.648-1.256c9.6-5.624 20.816-7.174 31.581-4.362l30.327 7.921-1.604 6.141c-2.811 10.766-9.646 19.792-19.247 25.416s-20.816 7.173-31.582 4.362l-30.326-7.92 1.606-6.149c2.812-10.762 9.646-19.786 19.245-25.409zm.715-51.023c2.811-10.766 9.646-19.792 19.247-25.416 9.6-5.624 20.815-7.174 31.582-4.362l30.326 7.92-1.603 6.141c-2.811 10.766-9.646 19.792-19.247 25.416s-20.817 7.173-31.582 4.362l-30.326-7.921 1.067-4.086zm59.169-178.295c9.6-5.624 20.815-7.174 31.582-4.362l30.326 7.92-1.604 6.141c-2.811 10.766-9.647 19.792-19.247 25.416-9.599 5.624-20.814 7.174-31.582 4.362l-30.326-7.921 1.324-5.069.281-1.074c0-.001 0-.002.001-.003l.001-.005c2.813-10.76 9.647-19.783 19.244-25.405zm80.266-66.74c-2.811 10.766-9.646 19.792-19.247 25.416s-20.817 7.173-31.581 4.362l-30.327-7.92 1.604-6.143c2.811-10.765 9.646-19.79 19.246-25.414s20.815-7.175 31.582-4.361l30.326 7.92z"/></g></svg>