<svg id="Layer_1" enable-background="new 0 0 512 512" height="512" viewBox="0 0 512 512" width="512" xmlns="http://www.w3.org/2000/svg"><g><path d="m399.522 33.665c1.891-3.293 2.978-7.103 2.978-11.165 0-12.407-10.093-22.5-22.5-22.5h-187.615c-4.142 0-7.5 3.358-7.5 7.5s3.358 7.5 7.5 7.5h187.615c4.136 0 7.5 3.364 7.5 7.5s-3.364 7.5-7.5 7.5h-248c-4.136 0-7.5-3.364-7.5-7.5s3.364-7.5 7.5-7.5h27.359c4.142 0 7.5-3.358 7.5-7.5s-3.358-7.5-7.5-7.5h-27.359c-12.407 0-22.5 10.093-22.5 22.5 0 4.062 1.087 7.872 2.978 11.165-8.925 4.974-14.978 14.504-14.978 25.426v393.817c0 10.922 6.053 20.453 14.978 25.426-1.891 3.293-2.978 7.103-2.978 11.165 0 12.407 10.093 22.5 22.5 22.5h156.385c4.142 0 7.5-3.358 7.5-7.5s-3.358-7.5-7.5-7.5h-156.385c-4.136 0-7.5-3.364-7.5-7.5s3.364-7.5 7.5-7.5h248c4.136 0 7.5 3.364 7.5 7.5s-3.364 7.5-7.5 7.5h-59.41c-4.142 0-7.5 3.358-7.5 7.5s3.358 7.5 7.5 7.5h59.41c12.407 0 22.5-10.093 22.5-22.5 0-4.062-1.087-7.872-2.978-11.165 8.925-4.974 14.978-14.504 14.978-25.426v-393.817c0-10.922-6.053-20.452-14.978-25.426zm-14.113 11.335c7.77 0 14.091 6.321 14.091 14.091v129.409h-43.705c-3.12-13.337-8.901-25.926-17.176-37.176-2.454-3.336-7.148-4.052-10.485-1.598s-4.052 7.149-1.598 10.485c11.098 15.088 16.964 32.997 16.964 51.789v88c0 48.248-39.252 87.5-87.5 87.5s-87.5-39.252-87.5-87.5v-88c0-48.248 39.252-87.5 87.5-87.5 17.502 0 34.392 5.148 48.842 14.889 3.435 2.315 8.095 1.407 10.411-2.027 2.315-3.435 1.408-8.096-2.027-10.411-16.936-11.417-36.725-17.451-57.226-17.451-48.435 0-89.127 33.77-99.778 79h-43.722v-129.409c0-7.77 6.321-14.091 14.091-14.091zm14.091 263.5h-41.355c.231-2.804.355-5.638.355-8.5v-88c0-2.853-.121-5.687-.35-8.5h41.35zm-287-105h41.355c-.231 2.804-.355 5.638-.355 8.5v88c0 2.862.124 5.696.355 8.5h-41.355zm14.091 263.5c-7.77 0-14.091-6.321-14.091-14.091v-129.409h43.722c10.651 45.23 51.343 79 99.778 79s89.127-33.77 99.778-79h43.722v129.409c0 7.77-6.321 14.091-14.091 14.091z"/></g></svg>