<svg id="Layer_1" enable-background="new 0 0 512 512" height="512" viewBox="0 0 512 512" width="512" xmlns="http://www.w3.org/2000/svg"><g><g><path d="m102.955 122.421c-3.218-2.609-7.94-2.114-10.55 1.103-30.247 37.308-46.905 84.355-46.905 132.476 0 116.07 94.43 210.5 210.5 210.5s210.5-94.43 210.5-210.5-94.43-210.5-210.5-210.5c-52.103 0-102.104 19.182-140.793 54.012-3.078 2.771-3.327 7.513-.556 10.592 2.772 3.078 7.515 3.327 10.592.556 35.93-32.346 82.366-50.16 130.757-50.16 107.799 0 195.5 87.701 195.5 195.5 0 105.286-83.665 191.385-188 195.342v-41.295h31.346c9.516 0 18.929-2.406 27.224-6.959 3.631-1.993 4.959-6.552 2.967-10.183-1.993-3.631-6.552-4.958-10.184-2.966-6.09 3.342-13.008 5.108-20.007 5.108h-31.346v-6.346c0-22.968 18.686-41.654 41.654-41.654h31.346v6.346c0 5.849-1.187 11.502-3.526 16.803-1.673 3.79.043 8.217 3.832 9.89 3.79 1.671 8.218-.043 9.891-3.833 3.188-7.221 4.804-14.912 4.804-22.86v-7.846c0-7.444-6.056-13.5-13.5-13.5h-32.846c-16.458 0-31.294 7.06-41.654 18.303v-19.303h31.346c31.239 0 56.654-25.415 56.654-56.654v-7.846c0-7.444-6.056-13.5-13.5-13.5h-32.846c-16.458 0-31.294 7.06-41.654 18.303v-19.303h31.346c31.239 0 56.654-25.415 56.654-56.654v-7.846c0-7.444-6.056-13.5-13.5-13.5h-28v-63c0-4.142-3.357-7.5-7.5-7.5s-7.5 3.358-7.5 7.5v63.929c-12.353 2.246-23.323 8.499-31.5 17.374v-85.803c0-4.142-3.357-7.5-7.5-7.5s-7.5 3.358-7.5 7.5v85.803c-8.177-8.875-19.147-15.128-31.5-17.374v-63.929c0-4.142-3.357-7.5-7.5-7.5s-7.5 3.358-7.5 7.5v63h-28c-7.444 0-13.5 6.056-13.5 13.5v7.846c0 31.239 25.415 56.654 56.654 56.654h31.345v19.303c-10.36-11.244-25.196-18.303-41.654-18.303h-32.846c-7.444 0-13.5 6.056-13.5 13.5v7.846c0 31.239 25.415 56.654 56.654 56.654h31.346v19.303c-10.36-11.244-25.196-18.303-41.654-18.303h-32.846c-7.444 0-13.5 6.056-13.5 13.5v7.846c0 31.239 25.415 56.654 56.654 56.654h31.346v41.295c-104.335-3.957-188-90.056-188-195.342 0-44.692 15.469-88.385 43.558-123.03 2.608-3.217 2.114-7.94-1.103-10.549zm202.199 145.626h31.346v6.346c0 22.968-18.686 41.654-41.654 41.654h-31.346v-6.346c0-22.968 18.686-41.654 41.654-41.654zm0-79h31.346v6.346c0 22.968-18.686 41.654-41.654 41.654h-31.346v-6.346c0-22.968 18.686-41.654 41.654-41.654zm-129.654 6.346v-6.346h31.346c22.969 0 41.654 18.686 41.654 41.654v6.346h-31.346c-22.968 0-41.654-18.686-41.654-41.654zm0 79v-6.346h31.346c22.969 0 41.654 18.686 41.654 41.654v6.346h-31.346c-22.968 0-41.654-18.686-41.654-41.654zm0 79v-6.346h31.346c22.969 0 41.654 18.686 41.654 41.654v6.346h-31.346c-22.968 0-41.654-18.686-41.654-41.654z"/><path d="m501.599 285.683c5.113-9.179 10.401-18.671 10.401-29.683 0-11.011-5.288-20.503-10.401-29.683-3.463-6.216-6.734-12.088-7.827-17.616-1.156-5.843-.367-12.702.469-19.964 1.182-10.278 2.404-20.906-1.67-30.732-4.157-10.026-12.632-16.727-20.827-23.207-5.646-4.465-10.979-8.682-14.185-13.47-3.256-4.862-5.14-11.452-7.134-18.429-2.856-9.992-5.81-20.324-13.405-27.919-7.596-7.595-17.928-10.548-27.92-13.405-1.611-.461-3.223-.921-4.817-1.402-3.967-1.195-8.15 1.051-9.345 5.018-1.195 3.966 1.051 8.15 5.017 9.345 1.663.501 3.343.981 5.023 1.462 8.53 2.438 16.588 4.742 21.436 9.589s7.15 12.905 9.59 21.436c2.225 7.783 4.525 15.831 9.091 22.65 4.518 6.747 11.039 11.904 17.346 16.891 7 5.535 13.611 10.763 16.275 17.187 2.583 6.231 1.631 14.509.623 23.272-.93 8.086-1.892 16.448-.281 24.588 1.552 7.849 5.562 15.045 9.438 22.005 4.373 7.853 8.504 15.269 8.504 22.384s-4.132 14.532-8.506 22.383c-3.877 6.959-7.886 14.156-9.438 22.005-1.61 8.14-.648 16.501.282 24.587 1.008 8.764 1.961 17.042-.623 23.273-2.664 6.424-9.275 11.652-16.275 17.187-6.308 4.987-12.829 10.145-17.347 16.892-4.564 6.819-6.865 14.866-9.09 22.648-2.438 8.531-4.742 16.589-9.591 21.437-4.848 4.848-12.905 7.151-21.437 9.59-7.782 2.225-15.829 4.525-22.649 9.09-6.746 4.517-11.903 11.039-16.891 17.346-5.535 7-10.763 13.612-17.188 16.275-6.23 2.584-14.509 1.632-23.272.624-8.087-.931-16.448-1.893-24.588-.282-7.849 1.553-15.045 5.562-22.004 9.438-7.851 4.376-15.268 8.507-22.383 8.507s-14.532-4.131-22.384-8.505c-6.959-3.877-14.155-7.886-22.004-9.438-8.141-1.61-16.502-.649-24.589.282-8.763 1.008-17.039 1.96-23.272-.624-6.424-2.664-11.652-9.275-17.187-16.275-4.987-6.307-10.145-12.83-16.893-17.347-6.819-4.565-14.866-6.866-22.649-9.091-8.53-2.438-16.588-4.742-21.436-9.589-4.848-4.848-7.15-12.905-9.59-21.436-2.225-7.783-4.525-15.831-9.091-22.65-4.518-6.747-11.039-11.904-17.346-16.891-7-5.535-13.611-10.763-16.275-17.187-2.583-6.231-1.631-14.509-.623-23.272.93-8.086 1.892-16.448.281-24.588-1.552-7.849-5.562-15.045-9.438-22.005-4.373-7.853-8.504-15.269-8.504-22.384s4.132-14.532 8.506-22.383c3.877-6.959 7.886-14.156 9.438-22.005 1.61-8.14.648-16.501-.282-24.587-1.008-8.764-1.961-17.042.623-23.273 2.664-6.424 9.275-11.652 16.275-17.187 6.308-4.987 12.829-10.145 17.347-16.892 4.564-6.819 6.865-14.866 9.09-22.648 2.438-8.531 4.742-16.589 9.591-21.437 4.848-4.848 12.905-7.151 21.437-9.59 7.782-2.225 15.829-4.525 22.649-9.09 6.746-4.517 11.903-11.039 16.891-17.346 5.535-7 10.763-13.612 17.188-16.275 6.231-2.583 14.51-1.631 23.272-.624 8.086.931 16.447 1.892 24.588.282 7.849-1.553 15.045-5.562 22.004-9.438 7.851-4.376 15.268-8.507 22.383-8.507s14.532 4.131 22.384 8.505c6.959 3.877 14.155 7.886 22.004 9.438 8.14 1.609 16.501.648 24.589-.282 8.764-1.008 17.039-1.961 23.272.624 6.424 2.664 11.651 9.275 17.187 16.274 1.476 1.867 3.003 3.798 4.569 5.67 2.657 3.177 7.388 3.598 10.564.94 3.177-2.658 3.598-7.388.939-10.565-1.434-1.713-2.829-3.479-4.308-5.349-6.479-8.195-13.181-16.669-23.206-20.827-9.826-4.074-20.453-2.852-30.733-1.669-7.262.835-14.12 1.625-19.964.469-5.526-1.093-11.398-4.364-17.614-7.827-9.179-5.113-18.671-10.401-29.683-10.401s-20.504 5.288-29.684 10.402c-6.216 3.463-12.088 6.734-17.614 7.827-5.842 1.155-12.702.367-19.963-.469-10.279-1.184-20.907-2.406-30.733 1.669-10.025 4.157-16.728 12.632-23.208 20.828-4.464 5.646-8.682 10.979-13.469 14.185-4.862 3.255-11.452 5.139-18.428 7.133-9.992 2.856-20.325 5.81-27.92 13.406-7.597 7.595-10.55 17.928-13.406 27.92-1.994 6.976-3.878 13.565-7.133 18.427-3.205 4.788-8.539 9.005-14.186 13.47-8.195 6.48-16.67 13.181-20.827 23.208-4.074 9.826-2.852 20.455-1.669 30.733.835 7.262 1.624 14.121.469 19.962-1.094 5.527-4.364 11.399-7.828 17.616-5.113 9.179-10.401 18.671-10.401 29.683 0 11.011 5.288 20.503 10.401 29.683 3.463 6.216 6.734 12.088 7.827 17.616 1.156 5.843.367 12.702-.469 19.964-1.182 10.278-2.404 20.906 1.67 30.732 4.157 10.026 12.632 16.727 20.827 23.207 5.646 4.465 10.979 8.682 14.185 13.47 3.256 4.862 5.14 11.452 7.134 18.429 2.856 9.992 5.81 20.324 13.405 27.919s17.928 10.549 27.92 13.405c6.976 1.995 13.565 3.878 18.428 7.133 4.788 3.206 9.005 8.539 13.47 14.186 6.48 8.195 13.182 16.669 23.207 20.827 9.827 4.075 20.454 2.852 30.733 1.669 7.261-.835 14.119-1.625 19.964-.469 5.526 1.093 11.398 4.364 17.614 7.827 9.18 5.114 18.672 10.402 29.684 10.402s20.504-5.288 29.684-10.402c6.216-3.463 12.088-6.734 17.614-7.827 5.842-1.155 12.703-.367 19.963.469 10.277 1.183 20.905 2.405 30.733-1.669 10.025-4.157 16.728-12.632 23.208-20.828 4.464-5.646 8.682-10.979 13.469-14.185 4.862-3.255 11.452-5.139 18.428-7.133 9.992-2.856 20.325-5.81 27.92-13.406 7.597-7.595 10.55-17.928 13.406-27.92 1.994-6.976 3.878-13.565 7.133-18.427 3.205-4.788 8.539-9.005 14.186-13.47 8.195-6.48 16.67-13.181 20.827-23.208 4.074-9.826 2.852-20.455 1.669-30.733-.835-7.262-1.624-14.121-.469-19.962 1.093-5.528 4.364-11.399 7.828-17.616z"/></g></g></svg>