<svg id="Layer_1" enable-background="new 0 0 512 512" height="512" viewBox="0 0 512 512" width="512" xmlns="http://www.w3.org/2000/svg"><g><g><path d="m390 180.69h-35.5v-34.69h1.027c15.742 0 28.738-12.59 28.97-28.065.117-7.779-2.846-15.091-8.344-20.589-5.383-5.382-12.54-8.346-20.153-8.346h-4.431c-.516-2.939-1.336-5.814-2.451-8.588-1.545-3.843-5.913-5.707-9.756-4.161-3.843 1.545-5.706 5.913-4.161 9.756 1.064 2.647 1.715 5.439 1.935 8.298.417 5.436 4.992 9.694 10.415 9.694h8.449c3.607 0 6.998 1.404 9.546 3.953 2.604 2.604 4.007 6.07 3.952 9.758-.11 7.328-6.378 13.29-13.972 13.29h-89.756c-8.547 0-15.5 6.953-15.5 15.5v34c0 6.893-5.607 12.5-12.5 12.5s-12.5-5.607-12.5-12.5v-34c0-8.286-6.54-15.054-14.727-15.461-.254-.026-.512-.04-.773-.04h-47.49c-.261 0-.519.014-.773.04-8.187.407-14.727 7.175-14.727 15.461v78c0 6.893-5.607 12.5-12.5 12.5s-12.5-5.607-12.5-12.5v-78c0-8.547-6.953-15.5-15.5-15.5h-38.28c-3.607 0-6.997-1.404-9.547-3.954-2.604-2.604-4.007-6.068-3.952-9.756.11-7.328 6.378-13.29 13.972-13.29h8.173c3.486 0 6.729-1.728 8.676-4.621 1.937-2.879 2.314-6.514 1.009-9.722-1.54-3.786-2.153-7.812-1.826-11.959 1.006-12.555 11.225-22.828 23.775-23.895 3.793-.326 7.504.146 11.03 1.402 3.462 1.232 7.242.605 10.11-1.681 2.821-2.25 4.253-5.729 3.831-9.309-.255-2.154-.24-4.352.046-6.534 1.601-12.239 12.107-21.973 24.438-22.643 13.072-.709 24.742 8.415 27.16 21.214.692 3.666 3.309 6.7 6.831 7.919 3.532 1.224 7.48.454 10.304-2.01 4.02-3.51 9.181-5.443 14.531-5.443 7.059 0 13.751 3.419 17.904 9.146 1.885 2.6 4.811 4.147 8.027 4.245 3.262.098 6.34-1.297 8.425-3.832 4.999-6.076 12.363-9.56 20.204-9.56 13.011 0 24.147 9.703 25.903 22.57.739 5.419 5.416 9.318 10.888 9.076 3.113-.141 6.272.262 9.25 1.155 3.967 1.192 8.149-1.061 9.339-5.028s-1.061-8.148-5.028-9.339c-3.345-1.003-6.802-1.595-10.306-1.764-4.328-18.307-20.896-31.67-40.045-31.67-10.535 0-20.518 3.991-28.104 11.1-6.925-7.028-16.472-11.1-26.456-11.1-6.647 0-13.123 1.78-18.777 5.097-6.172-16.577-22.662-27.75-40.86-26.755-19.746 1.072-35.938 16.076-38.5 35.674-.159 1.216-.265 2.436-.316 3.656-3.63-.677-7.347-.857-11.102-.535-19.769 1.684-35.87 17.867-37.454 37.656-.336 4.257-.037 8.437.891 12.49h-1.971c-15.742 0-28.738 12.59-28.97 28.065-.117 7.779 2.846 15.091 8.343 20.588 5.265 5.265 12.228 8.208 19.653 8.335v269.986c0 4.142 3.358 7.5 7.5 7.5s7.5-3.358 7.5-7.5v-227.974h24.28v36.5c0 15.164 12.337 27.5 27.5 27.5s27.5-12.336 27.5-27.5v-36.5h49.538c3.274 11.528 13.889 20 26.452 20s23.178-8.472 26.452-20h75.279v271h-257v-10.615c0-4.142-3.358-7.5-7.5-7.5s-7.5 3.358-7.5 7.5v46.603c0 9.381 7.632 17.013 17.013 17.013h252.975c9.381 0 17.013-7.632 17.013-17.013v-64.126l12.832-8.551c12.807-8.535 27.559-15.051 43.845-19.365 36.106-9.565 61.324-42.361 61.324-79.755v-60c-.002-45.492-37.011-82.501-82.502-82.501zm-307.5-7.69v-27h23.78c.276 0 .5.224.5.5v26.5zm79.28-26.5c0-.276.224-.5.5-.5h47.49c.276 0 .5.224.5.5v26.5h-48.49zm103.49 26.5v-26.5c0-.276.224-.5.5-.5h73.73v27zm74.23 321.987c0 1.11-.903 2.013-2.013 2.013h-252.974c-1.11 0-2.013-.903-2.013-2.013v-20.987h257zm118-171.797c0 30.597-20.628 57.431-50.165 65.255-17.883 4.738-34.141 11.932-48.322 21.383l-4.513 3.008v-37.146h34.5c9.97 0 19.7-2.763 28.139-7.99 3.521-2.181 4.608-6.804 2.427-10.325s-6.803-4.607-10.325-2.427c-6.065 3.757-13.064 5.742-20.241 5.742h-34.5v-135h34.5c2.71 0 5.416.283 8.041.84h.001c17.648 3.747 30.458 19.585 30.458 37.66v58c0 4.113-.643 8.158-1.912 12.021-1.292 3.935.851 8.173 4.787 9.465.777.255 1.565.376 2.341.376 3.152 0 6.087-2.004 7.125-5.163 1.765-5.376 2.66-10.994 2.66-16.7v-58c0-25.115-17.808-47.124-42.342-52.333-.001 0-.002 0-.004-.001-3.646-.774-7.399-1.166-11.154-1.166h-34.5v-15h35.499c37.22 0 67.5 30.28 67.5 67.5z"/><path d="m265.231 292.23v-41c0-15.164-12.336-27.5-27.5-27.5s-27.5 12.336-27.5 27.5v41c0 15.164 12.336 27.5 27.5 27.5s27.5-12.337 27.5-27.5zm-40 0v-41c0-6.893 5.607-12.5 12.5-12.5s12.5 5.607 12.5 12.5v41c0 6.893-5.607 12.5-12.5 12.5s-12.5-5.608-12.5-12.5z"/></g></g></svg>