<svg id="Layer_1" enable-background="new 0 0 512 512" height="512" viewBox="0 0 512 512" width="512" xmlns="http://www.w3.org/2000/svg"><g><path d="m455.248 233.224c-.935-43.532-4.591-87.468-10.891-130.706-.597-4.099-4.402-6.944-8.503-6.34-4.099.597-6.938 4.404-6.34 8.503 6.173 42.367 9.774 85.412 10.723 128.069h-94.582c-.579-62.072-3.551-124.645-8.846-186.25h82.568c1.808 8.912 3.514 17.906 5.086 26.816.719 4.079 4.613 6.807 8.689 6.083 4.079-.72 6.802-4.61 6.083-8.689-1.437-8.146-2.986-16.36-4.62-24.521 5.084-1.188 8.886-5.748 8.886-11.189v-23.5c-.001-6.341-5.16-11.5-11.501-11.5h-272.026c-4.142 0-7.5 3.358-7.5 7.5s3.358 7.5 7.5 7.5h268.526v16.5h-345v-16.5h44.68c4.142 0 7.5-3.358 7.5-7.5s-3.358-7.5-7.5-7.5h-48.18c-6.341 0-11.5 5.159-11.5 11.5v23.5c0 5.446 3.809 10.01 8.9 11.192-12.363 61.758-19.294 124.594-20.634 187.029-4.77 1.401-8.266 5.811-8.266 11.029v23.5c0 5.218 3.496 9.628 8.266 11.029 1.34 62.436 8.271 125.271 20.634 187.029-5.091 1.183-8.9 5.746-8.9 11.192v23.5c0 6.341 5.159 11.5 11.5 11.5h208.385c4.142 0 7.5-3.358 7.5-7.5s-3.358-7.5-7.5-7.5h-204.885v-16.5h345v16.5h-108.423c-4.142 0-7.5 3.358-7.5 7.5s3.358 7.5 7.5 7.5h111.923c6.341 0 11.5-5.159 11.5-11.5v-23.5c0-5.446-3.809-10.01-8.9-11.192 12.363-61.757 19.294-124.593 20.634-187.029 4.77-1.401 8.266-5.811 8.266-11.029v-23.5c0-5.213-3.489-9.62-8.252-11.026zm-150.435 31.026c.448-2.692.687-5.448.687-8.25 0-2.812-.248-5.565-.701-8.25h143.701v16.5zm-40.8 30.588c-.001.05 0 .101 0 .151v8.05h-15v-43.942c0-4.136 3.364-7.5 7.5-7.5s7.5 3.364 7.5 7.5zm-7.5-58.242c-12.407 0-22.5 10.093-22.5 22.5v23.448c-7.745-6.445-12.513-16.122-12.513-26.544 0-19.023 15.477-34.5 34.5-34.5s34.5 15.477 34.5 34.5c0 10.072-4.296 19.308-11.487 25.717v-22.621c0-12.407-10.094-22.5-22.5-22.5zm-193.013 27.654v-16.5h143.701c-.453 2.685-.701 5.438-.701 8.25 0 2.795.246 5.552.706 8.25zm258.261-217.75c5.327 61.591 8.311 124.176 8.893 186.25h-30.97c-8.339-15.605-24.789-26.25-43.684-26.25s-35.345 10.645-43.684 26.25h-30.97c.583-62.182 3.566-124.761 8.892-186.25zm-146.571 0c-5.294 61.501-8.265 124.074-8.844 186.25h-94.569c1.383-62.183 8.376-124.769 20.846-186.25zm-103.413 232.75h94.569c.579 62.072 3.551 124.645 8.846 186.25h-82.568c-12.471-61.481-19.464-124.066-20.847-186.25zm118.462 186.25c-5.327-61.591-8.311-124.176-8.893-186.25h30.996c4.8 8.992 12.323 16.452 21.671 21.099v4.626c0 7.204 5.861 13.064 13.064 13.064h18.872c7.204 0 13.064-5.861 13.064-13.064v-5.141c8.995-4.7 16.15-11.911 20.744-20.583h30.897c-.582 62.074-3.566 124.659-8.893 186.25h-131.522zm146.57 0c5.295-61.604 8.266-124.178 8.845-186.25h94.569c-1.383 62.184-8.376 124.769-20.847 186.25z"/></g></svg>