<svg id="Layer_1" enable-background="new 0 0 512 512" height="512" viewBox="0 0 512 512" width="512" xmlns="http://www.w3.org/2000/svg"><g><g><path d="m484.5 119h-75v-74h80c12.406 0 22.5-10.093 22.5-22.5s-10.094-22.5-22.5-22.5h-105.525c-4.143 0-7.5 3.358-7.5 7.5s3.357 7.5 7.5 7.5h105.525c4.136 0 7.5 3.364 7.5 7.5s-3.364 7.5-7.5 7.5h-467c-4.136 0-7.5-3.364-7.5-7.5s3.364-7.5 7.5-7.5h329.885c4.143 0 7.5-3.358 7.5-7.5s-3.357-7.5-7.5-7.5h-329.885c-12.406 0-22.5 10.093-22.5 22.5s10.094 22.5 22.5 22.5h80v74h-75c-15.164 0-27.5 12.336-27.5 27.5v44.039c0 4.142 3.357 7.5 7.5 7.5s7.5-3.358 7.5-7.5v-44.039c0-6.893 5.607-12.5 12.5-12.5h457c6.893 0 12.5 5.607 12.5 12.5v338c0 6.893-5.607 12.5-12.5 12.5h-457c-6.893 0-12.5-5.607-12.5-12.5v-260.115c0-4.142-3.357-7.5-7.5-7.5s-7.5 3.358-7.5 7.5v260.115c0 15.164 12.336 27.5 27.5 27.5h457c15.164 0 27.5-12.336 27.5-27.5v-338c0-15.164-12.336-27.5-27.5-27.5zm-367-74h277v74h-277z"/><path d="m448.23 467c-4.143 0-7.5 3.358-7.5 7.5s3.357 7.5 7.5 7.5h22.27c6.341 0 11.5-5.159 11.5-11.5v-310c0-6.341-5.159-11.5-11.5-11.5h-429c-6.341 0-11.5 5.159-11.5 11.5v310c0 6.341 5.159 11.5 11.5 11.5h374.577c4.143 0 7.5-3.358 7.5-7.5s-3.357-7.5-7.5-7.5h-17.577v-84.5h68.5v84.5zm18.77-303v84.5h-113.256c-5.841-15.849-21.156-26.972-38.624-26.972-10.535 0-20.519 3.991-28.104 11.1-6.925-7.028-16.473-11.1-26.457-11.1-6.647 0-13.122 1.78-18.776 5.097-6.172-16.578-22.685-27.737-40.859-26.755-19.746 1.072-35.938 16.076-38.5 35.673-.159 1.215-.265 2.436-.316 3.657-3.63-.677-7.343-.856-11.104-.535-8.76.745-16.796 4.342-23.172 9.835h-82.832v-84.5zm-83.5 208.81h-74.229v-26.503c0-.276.224-.5.499-.5h73.73zm-73.73-42.003c-8.546 0-15.499 6.953-15.499 15.5v33.984c0 .007-.001.013-.001.019v.008c-.006 6.888-5.612 12.489-12.5 12.489-6.892 0-12.499-5.607-12.499-12.5v-34c0-8.547-6.953-15.5-15.5-15.5h-47.49c-8.547 0-15.5 6.953-15.5 15.5v78c0 6.893-5.607 12.5-12.5 12.5s-12.5-5.607-12.5-12.5v-78c0-8.547-6.953-15.5-15.5-15.5h-38.281c-3.607 0-6.997-1.404-9.547-3.954-2.604-2.603-4.007-6.068-3.952-9.756.11-7.328 6.378-13.29 13.972-13.29h8.174c3.486 0 6.73-1.728 8.678-4.622 1.937-2.879 2.313-6.514 1.009-9.72-1.54-3.787-2.154-7.813-1.826-11.959 1.005-12.556 11.223-22.829 23.772-23.896 3.795-.325 7.506.147 11.031 1.402 3.463 1.233 7.243.606 10.11-1.682 2.82-2.25 4.252-5.729 3.829-9.305-.255-2.158-.239-4.356.047-6.536 1.601-12.239 12.107-21.974 24.438-22.643 13.071-.707 24.742 8.415 27.16 21.216.692 3.666 3.311 6.7 6.832 7.919 3.532 1.222 7.479.452 10.302-2.011 4.021-3.51 9.181-5.443 14.53-5.443 7.059 0 13.752 3.419 17.904 9.146 1.885 2.599 4.811 4.146 8.026 4.245 3.282.104 6.34-1.296 8.427-3.831 4.998-6.076 12.362-9.56 20.203-9.56 13.012 0 24.147 9.703 25.902 22.569.739 5.421 5.415 9.321 10.881 9.077.384-.017.769-.026 1.156-.026 14.626 0 26.958 11.406 28.077 25.966.417 5.436 4.991 9.694 10.415 9.694h8.45c3.607 0 6.997 1.404 9.547 3.954 2.604 2.603 4.007 6.067 3.952 9.756-.11 7.328-6.378 13.29-13.972 13.29zm-103.99 42.003v-26.503c0-.276.225-.5.5-.5h47.49c.275 0 .5.224.5.5v26.503zm-160.78-109.31h71.769c-1.736 4.001-2.855 8.314-3.216 12.816-.337 4.256-.037 8.436.891 12.491h-1.972c-15.741 0-28.737 12.589-28.97 28.064-.117 7.78 2.847 15.093 8.344 20.588 5.264 5.265 12.227 8.208 19.653 8.335v21.706h-66.499zm81.5 82.307h23.78c.275 0 .5.224.5.5v26.503h-24.28zm-81.5 36.693h66.5v84.5h-66.5zm81.5 84.5v-79.19h24.28v36.497c0 15.164 12.337 27.5 27.5 27.5s27.5-12.336 27.5-27.5v-36.497h49.539c3.275 11.527 13.889 19.997 26.451 19.997s23.176-8.47 26.451-19.997h75.279v79.19zm272-99.5v-21.693h1.027c15.741 0 28.737-12.589 28.97-28.064.117-7.78-2.847-15.093-8.344-20.588-5.382-5.383-12.539-8.347-20.153-8.347h-4.433c-1.781-10.083-7.103-18.94-14.576-25.308h86.009v104z"/></g></g></svg>