<svg id="Layer_1" enable-background="new 0 0 512 512" height="512" viewBox="0 0 512 512" width="512" xmlns="http://www.w3.org/2000/svg"><g><g><path d="m275 195.35h-38c-14.061 0-25.5 11.439-25.5 25.5 0 6.799 2.649 13.2 7.467 18.033 4.815 4.815 11.219 7.467 18.033 7.467h38c5.79 0 10.5 4.71 10.5 10.5 0 2.801-1.094 5.442-3.072 7.426-1.982 1.982-4.621 3.074-7.428 3.074-7.079 0-13.731 2.755-18.732 7.756-5.009 5.008-7.768 11.665-7.768 18.744v26.124c0 4.142 3.358 7.5 7.5 7.5 4.143 0 7.5-3.358 7.5-7.5v-26.124c0-3.072 1.198-5.961 3.374-8.137 2.168-2.168 5.055-3.363 8.126-3.363 6.813 0 13.217-2.651 18.042-7.475 4.81-4.824 7.458-11.226 7.458-18.025 0-14.061-11.439-25.5-25.5-25.5h-38c-2.807 0-5.445-1.091-7.418-3.065-1.987-1.994-3.082-4.634-3.082-7.435 0-5.79 4.71-10.5 10.5-10.5h38c6.813 0 13.217-2.651 18.042-7.475 4.81-4.824 7.458-11.226 7.458-18.025 0-14.061-11.439-25.5-25.5-25.5h-38c-2.807 0-5.445-1.091-7.418-3.065-1.987-1.994-3.082-4.634-3.082-7.435 0-5.79 4.71-10.5 10.5-10.5h38c6.813 0 13.217-2.651 18.042-7.475 4.81-4.824 7.458-11.226 7.458-18.025 0-14.061-11.439-25.5-25.5-25.5h-38c-2.807 0-5.445-1.091-7.418-3.065-1.987-1.994-3.082-4.634-3.082-7.435s1.094-5.442 3.074-7.427c1.981-1.981 4.619-3.073 7.426-3.073 14.612 0 26.5-11.888 26.5-26.5v-32.35c0-4.142-3.357-7.5-7.5-7.5-4.142 0-7.5 3.358-7.5 7.5v32.35c0 6.341-5.159 11.5-11.5 11.5-6.814 0-13.219 2.652-18.041 7.475-4.81 4.824-7.459 11.226-7.459 18.025s2.649 13.2 7.467 18.033c4.815 4.815 11.219 7.467 18.033 7.467h38c5.79 0 10.5 4.71 10.5 10.5 0 2.801-1.094 5.442-3.072 7.426-1.982 1.982-4.621 3.074-7.428 3.074h-38c-14.061 0-25.5 11.439-25.5 25.5 0 6.799 2.649 13.2 7.467 18.033 4.815 4.815 11.219 7.467 18.033 7.467h38c5.79 0 10.5 4.71 10.5 10.5 0 2.801-1.094 5.442-3.072 7.426-1.983 1.982-4.621 3.074-7.428 3.074z"/><path d="m429.44 411h-19.005c-4.143 0-7.5 3.358-7.5 7.5s3.357 7.5 7.5 7.5h17.065v71h-59.858v-71h10.486c4.143 0 7.5-3.358 7.5-7.5s-3.357-7.5-7.5-7.5h-82.628v-38.5c0-4.142-3.357-7.5-7.5-7.5h-24.5v-12.82c0-4.142-3.357-7.5-7.5-7.5-4.142 0-7.5 3.358-7.5 7.5v12.82h-24.5c-4.142 0-7.5 3.358-7.5 7.5v38.5h-133.941c-7.201 0-13.059 5.858-13.059 13.059v23.915c0 4.142 3.358 7.5 7.5 7.5s7.5-3.358 7.5-7.5v-21.974h59.859v71h-59.859v-17.436c0-4.142-3.358-7.5-7.5-7.5s-7.5 3.358-7.5 7.5v19.377c0 7.201 5.858 13.059 13.059 13.059h346.881c7.201 0 13.06-5.858 13.06-13.059v-74.882c0-7.201-5.858-13.059-13.06-13.059zm-106.798 15v71h-133.283v-71zm-91.142-46h49v31h-49zm-72.141 117v-71h15v71zm178.283 0v-71h15v71z"/></g></g></svg>